<svg width="152" height="246" viewBox="0 0 152 246" fill="none" xmlns="http://www.w3.org/2000/svg">
<path fill-rule="evenodd" clip-rule="evenodd" d="M81.6888 3.36321L16.3623 69.5756C2.41539 86.2216 -0.334783 96.4648 0.0306838 115.688V175.988L0.0446463 176.391C0.373465 185.905 0.562043 191.361 11.1129 197.271C17.9873 199.502 21.8256 199.519 28.611 193.133L83.4386 138.153C87.7841 133.984 85.9939 129.871 83.4386 129.876C80.8833 129.881 56.6081 129.876 56.6081 129.876C47.656 129.24 42.4179 120.909 42.6096 118.052C42.6352 117.67 42.6447 117.293 42.6543 116.912C42.7164 114.442 42.7833 111.78 47.2757 106.229L86.9382 65.4373C89.1555 62.403 89.693 59.2202 89.8546 51.8401L89.2713 4.54557C87.7488 -1.0474 86.1545 -1.52329 81.6888 3.36321ZM65.3459 242.633L134.111 177.997C148.792 161.747 151.687 151.748 151.302 132.983V74.1181L151.287 73.7245C150.941 64.4377 150.743 59.1117 139.636 53.3422C132.4 51.1644 128.36 51.1472 121.217 57.382L63.504 111.053C58.9298 115.122 60.8142 119.137 63.504 119.132C66.1938 119.128 91.7467 119.132 91.7467 119.132C101.17 119.754 106.684 127.885 106.482 130.674C106.455 131.048 106.445 131.415 106.435 131.788C106.37 134.199 106.299 136.798 101.57 142.217L59.8202 182.037C57.4862 184.999 56.9204 188.106 56.7503 195.31L57.3643 241.479C58.9669 246.939 60.6452 247.403 65.3459 242.633Z" fill="#FF6100"/>
</svg>
